<?xml version='1.0' encoding='utf-8'?>
<svg xmlns="http://www.w3.org/2000/svg" xmlns:xlink="http://www.w3.org/1999/xlink" width="1294.2mm" height="850.23mm" clip-rule="evenodd" fill-rule="evenodd" image-rendering="optimizeQuality" shape-rendering="geometricPrecision" text-rendering="geometricPrecision" version="1.0" viewBox="0 0 113941 74852">
 <defs>
  <style type="text/css">
    .fil5 {fill:none}
    .fil0 {fill:#00A0E3}
    .fil1 {fill:#FFED00}
    .fil3 {fill:url(#a)}
    .fil2 {fill:url(#d)}
    .fil4 {fill:url(#e)}
  </style>
  <linearGradient id="a" y1="50%" y2="50%">
   <stop stop-color="#EBECEC" offset="0"/>
   <stop stop-color="#FEFEFE" offset="1"/>
  </linearGradient>
  <linearGradient id="d" x1="25662" x2="63643" y1="39349" y2="39349" gradientUnits="userSpaceOnUse">
   <stop stop-color="#FFED00" offset="0"/>
   <stop stop-color="#EDB203" offset="1"/>
  </linearGradient>
  <linearGradient id="e" x1="100%" x2="0%" y1="50%" y2="50%" xlink:href="#a">
  </linearGradient>
 </defs>
   <rect class="fil0" width="1.1394e5" height="74852"/>
    <ellipse class="fil1" cx="44653" cy="39349" rx="20701" ry="19846"/>
    <ellipse class="fil2" cx="44653" cy="39349" rx="18990" ry="18206"/>
     <ellipse class="fil3" cx="78091" cy="46504" rx="11628" ry="7670"/>
     <ellipse class="fil4" cx="77970" cy="46423" rx="9308" ry="6871"/>
     <ellipse class="fil3" cx="60581" cy="44870" rx="11628" ry="7670"/>
     <ellipse class="fil4" cx="60460" cy="44789" rx="9308" ry="6871"/>
     <ellipse class="fil3" cx="67153" cy="42805" rx="11628" ry="4671"/>
     <ellipse class="fil4" cx="67032" cy="42756" rx="9308" ry="4184"/>
     <ellipse class="fil3" cx="53993" cy="40812" rx="11628" ry="4671"/>
     <ellipse class="fil4" cx="53362" cy="41294" rx="9308" ry="4184"/>
     <ellipse class="fil3" cx="66159" cy="36246" rx="11628" ry="4671"/>
     <ellipse class="fil4" cx="66038" cy="36196" rx="9308" ry="4184"/>
     <ellipse class="fil3" cx="66159" cy="36246" rx="11628" ry="4671"/>
     <ellipse class="fil4" cx="66038" cy="36196" rx="9308" ry="4184"/>
     <ellipse class="fil3" cx="80073" cy="40718" rx="11628" ry="4671"/>
     <ellipse class="fil4" cx="79952" cy="40669" rx="9308" ry="4184"/>
     <ellipse class="fil3" cx="77330" cy="34944" rx="11628" ry="7670"/>
     <ellipse class="fil4" cx="77209" cy="34863" rx="9308" ry="6871"/>
     <ellipse class="fil3" cx="90011" cy="42353" rx="11628" ry="7409"/>
     <ellipse class="fil4" cx="89890" cy="42275" rx="9308" ry="6637"/>
     <path class="fil1" d="m10062 41921c213-508 154-443 590-752 1251-886 3669-1754 5121-2156 527-146 545-106 1089-91 1351 39 4177 312 5424 920 350 170 239 121 512 487l-257 347c-486 430-3645 1095-4341 1263-332 80-1382 383-1630 413-105 12-840-4-995-3-1313 10-3382 155-4645-30-529-77-444-45-868-398z"/>
    <path class="fil5" d="m10062 41921c5342-1307 7177-1592 12736-1592"/>
     <path class="fil1" d="m11654 31414c544-402 390-319 1031-448 945-190 4676-859 5385-809 582 40 2236 485 2853 693 880 297 2204 868 2852 1532 264 270 182 199 297 624l-347 234c-135 55-608 85-769 93-1156 57-2271 35-3445 120-631 45-1344 188-1955 101-1371-196-3921-626-5100-1266-576-313-535-278-802-874z"/>
    <path class="fil5" d="m11654 31414c3143 949 7526-307 12418 1592"/>
     <path class="fil1" d="m16430 22498c664-164 503-166 1130-17 1036 246 1945 523 3014 727 422 81 309 83 677 327 642 426 2712 1693 3007 2273l132 511-414 326c-682 334-3090 73-3892-69-471-84-450-29-840-290-966-646-2093-1585-2649-2619-306-569-272-520-165-1169z"/>
    <path class="fil5" d="m16430 22498c2252 2188 5040 2819 7960 3821"/>
     <path class="fil1" d="m24072 16449c774 172 630 100 1201 616 358 324 2645 2718 2837 3033 153 253 794 1920 933 2293 188 500 688 1943 632 2418l-190 555-582-60c-661-212-2514-2070-3070-2657-321-339-581-549-770-972-485-1086-1187-3107-1243-4266-27-551-15-381 252-960z"/>
    <path class="fil5" d="m24072 16449c1778 3644 3302 5593 5413 8915"/>
     <path class="fil1" d="m31077 11991c562 379 472 270 768 840 96 185 1462 3101 1464 3107 45 175 154 2692 151 3e3 -2 280-32 1006-147 1240l-326 410-507-130c-675-336-1890-2388-2260-3106-209-406-254-370-285-823-76-1110-23-2603 377-3644 233-608 205-536 765-894z"/>
    <path class="fil5" d="m31077 11991c-98 3132 948 5709 1910 8597"/>
     <path class="fil1" d="m39356 10080c535 371 482 291 721 881 371 916 748 2789 902 3796 72 465 10 489-73 948-120 669-595 3477-883 3903l-349 343c-471-202-409-97-674-452-652-874-1091-2669-1306-3745-92-463-156-529-86-1002 153-1020 602-2877 1014-3809 254-578 197-499 734-863z"/>
    <path class="fil5" d="m39356 10080c0 3010-270 7032 318 9871"/>
     <path class="fil1" d="m46360 9762c383 509 339 384 432 974 152 957 221 1990 365 2974 61 418 22 302-99 725-201 698-770 2915-1221 3344l-432 262-432-259c-546-511-1038-2727-1160-3504-72-458-121-413 4-851 298-1041 811-2367 1552-3168 411-446 379-396 991-497z"/>
    <path class="fil5" d="m46360 9762c-1110 2584-955 5506-955 8279"/>
     <path class="fil1" d="m55276 10717c456 482 425 388 535 1024 183 1056 80 2576-26 3654-48 485-72 388-306 828-377 709-1617 2911-2251 3260l-499 150-330-405c-318-631-100-3150-26-3942 46-490-31-412 190-838 485-931 1162-2241 1787-3058 388-507 307-435 926-673z"/>
    <path class="fil5" d="m55276 10717c-669 3025-1639 5957-2547 8916"/>
     <path class="fil1" d="m56868 22817c-268-473-289-348-262-844 94-1684 1729-3904 2826-5194 427-502 1697-1187 2312-1528 729-405 2872-1493 3557-1469l482 119-21 498c-165 635-2121 2787-2736 3484-347 393-919 1145-1320 1413-1419 949-2536 1808-3838 2929-527 455-319 362-1e3 592z"/>
    <path class="fil5" d="m56868 22817c1029-3213 6310-6957 8915-8916"/>
     <path class="fil1" d="m61962 25364c-200-534-225-494-34-1027 378-1058 1477-2232 2287-2999 369-348 352-298 834-472 738-268 3117-1019 3825-816l412 219 2 469c-150 683-1994 2376-2558 2907-356 335-272 324-725 494-938 352-1894 744-2833 1076-608 215-567 245-1210 149z"/>
    <path class="fil5" d="m61962 25364c1457-1956 5185-3781 7324-5095"/>
     <path class="fil1" d="m63873 30140c-146-566-186-518 28-1038 348-848 1173-1748 1834-2379 280-267 250-197 632-302 658-180 2538-597 3139-368l417 266 18 496c-43 241-386 721-545 921-189 240-1571 1720-1754 1823-90 50-2292 615-2531 664-655 132-611 147-1238-83z"/>
    <path class="fil5" d="m63873 30140c1801-1692 3924-2586 6050-3821"/>
     <path class="fil1" d="m14520 50518c8-769-33-640 357-1278 607-993 1647-2168 2488-2983 371-360 610-415 1088-609 1044-424 2593-899 3715-874 555 13 389 16 949 331l-175 578c-198 369-2312 2189-2811 2659-347 326-417 474-856 671-1066 477-2334 1139-3424 1478-719 224-583 216-1331 27z"/>
    <path class="fil5" d="m14520 50518c3130-2400 4776-3921 8597-5413"/>
     <path class="fil1" d="m25027 52110c-38 517-6 440-284 861-612 923-1798 2175-2561 3022-407 450-357 333-902 617-659 345-3178 1687-3824 1652l-389-102-104-392c-26-842 1764-3020 2325-3662 414-474 317-476 866-762 1045-544 2793-1371 3961-1478 516-48 480-45 912 244z"/>
    <path class="fil5" d="m25027 52110c-1886 838-6542 4577-7960 6050"/>
     <path class="fil1" d="m25982 54976c682 458 719 354 775 1213 72 1093-454 2398-917 3370-319 669-551 779-1108 1236-482 396-2157 1701-2691 1816l-516 7-1-1-216-475c-136-685 736-2555 1054-3215 295-615 322-843 846-1305 663-584 1346-1186 1948-1834 412-444 299-355 826-812z"/>
    <path class="fil5" d="m25982 54976c513 2006-2916 5085-4457 7642"/>
     <path class="fil1" d="m30440 57523c280 530 279 439 251 1003-15 310-409 2908-487 3087-84 192-1595 2057-1819 2289-134 139-472 466-642 536l-487 90-334-367c-364-629-121-2684 7-3426 73-419 3-388 252-724 567-768 1416-1767 2228-2269 486-301 438-259 1031-219z"/>
    <path class="fil5" d="m30440 57523c-1432 2149-2372 4569-3184 7005"/>
     <path class="fil1" d="m34579 59434c535 541 477 401 647 1143 155 675 428 3026 273 3609-144 540-937 2201-1248 2724-152 256-531 837-770 978l-494 143-334-370c-133-221-249-857-291-1134-87-572-260-2404-220-2915 45-584 1076-2743 1434-3316 406-649 310-542 1003-862z"/>
    <path class="fil5" d="m34579 59434c-293 1513-1200 7529-1592 8597"/>
     <path class="fil1" d="m39674 61026c565 191 523 146 859 632 685 988 1218 2734 1521 3904 146 559 95 516 32 1095-95 875-494 3692-1066 4295l-391 263-392-259c-476-486-1178-3313-1375-4083-141-549-183-467-129-1029 111-1171 218-2779 462-3900 124-567 78-473 479-918z"/>
    <path class="fil5" d="m39674 61026c722 2547 955 7471 955 10189"/>
     <path class="fil1" d="m44450 61026c721-50 642-81 1255 296 1159 712 2266 2054 3027 3174 314 461 257 457 391 1002 283 1148 618 3090 477 4249-61 502-45 347-374 831l-516-186c-537-333-2118-2929-2575-3621-289-439-297-330-434-837-350-1287-785-2420-1171-3667-212-685-210-510-80-1241z"/>
    <path class="fil5" d="m44450 61026c2492 2658 3671 6141 4776 9552"/>
     <path class="fil1" d="m51455 60389c832 116 741 104 1379 606 346 271 1959 1709 2149 1975 257 361 1013 2797 1089 3334 90 633 70 422-159 1090h-636c-666-151-2226-1575-2745-2079-374-363-370-290-551-769-312-825-804-2266-834-3136-21-623-21-430 308-1021z"/>
    <path class="fil5" d="m51455 60389c659 1483 3414 5568 4458 7005"/>
     <path class="fil1" d="m55913 59115c591-356 521-366 1189-313 1133 91 2371 640 3314 1261 360 238 319 262 549 633 538 871 1152 2262 1223 3282 34 481 11 344-226 869l-558-10c-453-105-2266-1553-2849-1936-326-214-264-85-461-399-552-876-1129-1476-1735-2277-410-540-343-399-446-1110z"/>
    <path class="fil5" d="m55913 59115c3075 1403 4279 2914 6049 5732"/>
     <path class="fil1" d="m61007 55613c636-513 552-529 1346-539 294-4 1670 140 1882 250 334 173 1438 1733 1529 2133l19 703-591 390c-406 152-2355-45-2675-252-123-79-957-1176-1080-1360-420-631-355-520-430-1325z"/>
    <path class="fil5" d="m61007 55613c1580 614 3146 1732 4776 2547"/>
</svg>